<mxfile host="Electron" modified="2024-02-21T08:34:10.947Z" agent="Mozilla/5.0 (Windows NT 10.0; Win64; x64) AppleWebKit/537.36 (KHTML, like Gecko) draw.io/23.0.2 Chrome/120.0.6099.109 Electron/28.1.0 Safari/537.36" etag="2OzwWAQcB9IX3de8qgX7" version="23.0.2" type="device">
  <diagram name="Page-1" id="9c096ad6-e400-ecc8-3e38-643d2caac077">
    <mxGraphModel dx="341" dy="206" grid="1" gridSize="10" guides="1" tooltips="1" connect="1" arrows="1" fold="1" page="1" pageScale="1.5" pageWidth="1169" pageHeight="826" background="none" math="0" shadow="0">
      <root>
        <mxCell id="0" style=";html=1;" />
        <mxCell id="1" style=";html=1;" parent="0" />
        <mxCell id="3cfceab9cabfe5b9-22" style="edgeStyle=none;curved=1;html=1;startSize=10;endArrow=none;endFill=0;endSize=10;strokeColor=#000000;strokeWidth=1;fontSize=12;" parent="1" source="uRtbasLGS5ukkT__xAVm-1" edge="1">
          <mxGeometry relative="1" as="geometry">
            <mxPoint x="250.00285714285712" y="442" as="sourcePoint" />
            <mxPoint x="351" y="420" as="targetPoint" />
          </mxGeometry>
        </mxCell>
        <mxCell id="uRtbasLGS5ukkT__xAVm-1" value="E" style="text;html=1;strokeColor=none;fillColor=none;align=center;verticalAlign=middle;whiteSpace=wrap;rounded=0;" vertex="1" parent="1">
          <mxGeometry x="220" y="462" width="30" height="30" as="geometry" />
        </mxCell>
        <mxCell id="uRtbasLGS5ukkT__xAVm-2" value="F" style="text;html=1;strokeColor=none;fillColor=none;align=center;verticalAlign=middle;whiteSpace=wrap;rounded=0;" vertex="1" parent="1">
          <mxGeometry x="340" y="407" width="40" height="30" as="geometry" />
        </mxCell>
        <mxCell id="uRtbasLGS5ukkT__xAVm-3" style="edgeStyle=none;curved=1;html=1;startSize=10;endArrow=none;endFill=0;endSize=10;strokeColor=#000000;strokeWidth=1;fontSize=12;" edge="1" parent="1">
          <mxGeometry relative="1" as="geometry">
            <mxPoint x="250" y="480" as="sourcePoint" />
            <mxPoint x="350" y="476" as="targetPoint" />
          </mxGeometry>
        </mxCell>
        <mxCell id="uRtbasLGS5ukkT__xAVm-4" value="D" style="text;html=1;strokeColor=none;fillColor=none;align=center;verticalAlign=middle;whiteSpace=wrap;rounded=0;" vertex="1" parent="1">
          <mxGeometry x="340" y="462" width="40" height="30" as="geometry" />
        </mxCell>
        <mxCell id="uRtbasLGS5ukkT__xAVm-5" style="edgeStyle=orthogonalEdgeStyle;rounded=0;orthogonalLoop=1;jettySize=auto;html=1;exitX=0.5;exitY=1;exitDx=0;exitDy=0;" edge="1" parent="1" source="uRtbasLGS5ukkT__xAVm-4" target="uRtbasLGS5ukkT__xAVm-4">
          <mxGeometry relative="1" as="geometry" />
        </mxCell>
        <mxCell id="uRtbasLGS5ukkT__xAVm-6" style="edgeStyle=none;curved=1;html=1;startSize=10;endArrow=none;endFill=0;endSize=10;strokeColor=#000000;strokeWidth=1;fontSize=12;" edge="1" parent="1">
          <mxGeometry relative="1" as="geometry">
            <mxPoint x="250" y="492.0008695652174" as="sourcePoint" />
            <mxPoint x="350" y="513.74" as="targetPoint" />
          </mxGeometry>
        </mxCell>
        <mxCell id="uRtbasLGS5ukkT__xAVm-7" value="R" style="text;html=1;strokeColor=none;fillColor=none;align=center;verticalAlign=middle;whiteSpace=wrap;rounded=0;" vertex="1" parent="1">
          <mxGeometry x="340" y="492" width="60" height="30" as="geometry" />
        </mxCell>
        <mxCell id="uRtbasLGS5ukkT__xAVm-8" style="edgeStyle=none;curved=1;html=1;startSize=10;endArrow=none;endFill=0;endSize=10;strokeColor=#000000;strokeWidth=1;fontSize=12;exitX=0.682;exitY=0.937;exitDx=0;exitDy=0;exitPerimeter=0;" edge="1" parent="1">
          <mxGeometry relative="1" as="geometry">
            <mxPoint x="240.46000000000004" y="500" as="sourcePoint" />
            <mxPoint x="340" y="531.89" as="targetPoint" />
          </mxGeometry>
        </mxCell>
        <mxCell id="uRtbasLGS5ukkT__xAVm-9" value="C" style="text;html=1;strokeColor=none;fillColor=none;align=center;verticalAlign=middle;whiteSpace=wrap;rounded=0;" vertex="1" parent="1">
          <mxGeometry x="340" y="514" width="60" height="30" as="geometry" />
        </mxCell>
        <mxCell id="uRtbasLGS5ukkT__xAVm-10" style="edgeStyle=none;curved=1;html=1;startSize=10;endArrow=none;endFill=0;endSize=10;strokeColor=#000000;strokeWidth=1;fontSize=12;" edge="1" parent="1">
          <mxGeometry relative="1" as="geometry">
            <mxPoint x="380.0028571428571" y="412" as="sourcePoint" />
            <mxPoint x="430" y="380" as="targetPoint" />
          </mxGeometry>
        </mxCell>
        <mxCell id="uRtbasLGS5ukkT__xAVm-11" style="edgeStyle=none;curved=1;html=1;startSize=10;endArrow=none;endFill=0;endSize=10;strokeColor=#000000;strokeWidth=1;fontSize=12;" edge="1" parent="1">
          <mxGeometry relative="1" as="geometry">
            <mxPoint x="380" y="420" as="sourcePoint" />
            <mxPoint x="440" y="400" as="targetPoint" />
          </mxGeometry>
        </mxCell>
        <mxCell id="uRtbasLGS5ukkT__xAVm-12" style="edgeStyle=none;curved=1;html=1;startSize=10;endArrow=none;endFill=0;endSize=10;strokeColor=#000000;strokeWidth=1;fontSize=12;" edge="1" parent="1" source="uRtbasLGS5ukkT__xAVm-2">
          <mxGeometry relative="1" as="geometry">
            <mxPoint x="390" y="430" as="sourcePoint" />
            <mxPoint x="450" y="420" as="targetPoint" />
          </mxGeometry>
        </mxCell>
        <mxCell id="uRtbasLGS5ukkT__xAVm-13" value="B" style="text;html=1;strokeColor=none;fillColor=none;align=center;verticalAlign=middle;whiteSpace=wrap;rounded=0;" vertex="1" parent="1">
          <mxGeometry x="410" y="360" width="60" height="30" as="geometry" />
        </mxCell>
        <mxCell id="uRtbasLGS5ukkT__xAVm-14" value="G" style="text;html=1;strokeColor=none;fillColor=none;align=center;verticalAlign=middle;whiteSpace=wrap;rounded=0;" vertex="1" parent="1">
          <mxGeometry x="420" y="380" width="60" height="30" as="geometry" />
        </mxCell>
        <mxCell id="uRtbasLGS5ukkT__xAVm-15" value="M" style="text;html=1;strokeColor=none;fillColor=none;align=center;verticalAlign=middle;whiteSpace=wrap;rounded=0;" vertex="1" parent="1">
          <mxGeometry x="430" y="402" width="60" height="30" as="geometry" />
        </mxCell>
        <mxCell id="uRtbasLGS5ukkT__xAVm-16" style="edgeStyle=none;curved=1;html=1;startSize=10;endArrow=none;endFill=0;endSize=10;strokeColor=#000000;strokeWidth=1;fontSize=12;entryX=0;entryY=0.5;entryDx=0;entryDy=0;" edge="1" parent="1">
          <mxGeometry relative="1" as="geometry">
            <mxPoint x="380" y="470" as="sourcePoint" />
            <mxPoint x="430" y="455" as="targetPoint" />
          </mxGeometry>
        </mxCell>
        <mxCell id="uRtbasLGS5ukkT__xAVm-17" style="edgeStyle=none;curved=1;html=1;startSize=10;endArrow=none;endFill=0;endSize=10;strokeColor=#000000;strokeWidth=1;fontSize=12;" edge="1" parent="1" source="uRtbasLGS5ukkT__xAVm-4">
          <mxGeometry relative="1" as="geometry">
            <mxPoint x="400" y="477" as="sourcePoint" />
            <mxPoint x="460" y="460" as="targetPoint" />
          </mxGeometry>
        </mxCell>
        <mxCell id="uRtbasLGS5ukkT__xAVm-18" style="edgeStyle=none;curved=1;html=1;startSize=10;endArrow=none;endFill=0;endSize=10;strokeColor=#000000;strokeWidth=1;fontSize=12;" edge="1" parent="1" source="uRtbasLGS5ukkT__xAVm-4">
          <mxGeometry relative="1" as="geometry">
            <mxPoint x="380" y="491.05" as="sourcePoint" />
            <mxPoint x="450" y="491.05" as="targetPoint" />
          </mxGeometry>
        </mxCell>
        <mxCell id="uRtbasLGS5ukkT__xAVm-19" value="A" style="text;html=1;strokeColor=none;fillColor=none;align=center;verticalAlign=middle;whiteSpace=wrap;rounded=0;" vertex="1" parent="1">
          <mxGeometry x="410" y="437" width="60" height="30" as="geometry" />
        </mxCell>
        <mxCell id="uRtbasLGS5ukkT__xAVm-20" value="H" style="text;html=1;strokeColor=none;fillColor=none;align=center;verticalAlign=middle;whiteSpace=wrap;rounded=0;" vertex="1" parent="1">
          <mxGeometry x="440" y="446" width="60" height="30" as="geometry" />
        </mxCell>
        <mxCell id="uRtbasLGS5ukkT__xAVm-21" value="L" style="text;html=1;strokeColor=none;fillColor=none;align=center;verticalAlign=middle;whiteSpace=wrap;rounded=0;" vertex="1" parent="1">
          <mxGeometry x="430" y="476" width="60" height="30" as="geometry" />
        </mxCell>
        <mxCell id="uRtbasLGS5ukkT__xAVm-24" value="" style="endArrow=none;html=1;rounded=0;exitX=0.666;exitY=-0.016;exitDx=0;exitDy=0;exitPerimeter=0;entryX=0.25;entryY=0;entryDx=0;entryDy=0;" edge="1" parent="1" source="uRtbasLGS5ukkT__xAVm-4" target="uRtbasLGS5ukkT__xAVm-14">
          <mxGeometry width="50" height="50" relative="1" as="geometry">
            <mxPoint x="490" y="450" as="sourcePoint" />
            <mxPoint x="540" y="400" as="targetPoint" />
          </mxGeometry>
        </mxCell>
        <mxCell id="uRtbasLGS5ukkT__xAVm-25" value="" style="endArrow=none;html=1;rounded=0;exitX=0.698;exitY=0.003;exitDx=0;exitDy=0;exitPerimeter=0;entryX=0.25;entryY=0;entryDx=0;entryDy=0;" edge="1" parent="1" source="uRtbasLGS5ukkT__xAVm-4" target="uRtbasLGS5ukkT__xAVm-15">
          <mxGeometry width="50" height="50" relative="1" as="geometry">
            <mxPoint x="390" y="472" as="sourcePoint" />
            <mxPoint x="445" y="390" as="targetPoint" />
          </mxGeometry>
        </mxCell>
      </root>
    </mxGraphModel>
  </diagram>
</mxfile>
